<svg width="47" height="47" viewBox="0 0 47 47" fill="none" xmlns="http://www.w3.org/2000/svg">
<path d="M15.9272 23.6166C15.9272 19.4249 19.3233 16.0259 23.5138 16.0259C27.7043 16.0259 31.1023 19.4249 31.1023 23.6166C31.1023 27.8083 27.7043 31.2073 23.5138 31.2073C19.3233 31.2073 15.9272 27.8083 15.9272 23.6166ZM11.825 23.6166C11.825 30.0742 17.0581 35.3088 23.5138 35.3088C29.9696 35.3088 35.2027 30.0742 35.2027 23.6166C35.2027 17.159 29.9696 11.9244 23.5138 11.9244C17.0581 11.9244 11.825 17.159 11.825 23.6166ZM32.9338 11.4608C32.9336 12.0012 33.0936 12.5295 33.3936 12.979C33.6935 13.4285 34.12 13.7789 34.6191 13.9859C35.1181 14.1929 35.6674 14.2472 36.1973 14.142C36.7272 14.0368 37.214 13.7767 37.5962 13.3947C37.9784 13.0128 38.2388 12.526 38.3444 11.996C38.45 11.466 38.3961 10.9166 38.1896 10.4172C37.983 9.91784 37.6331 9.49095 37.184 9.19053C36.7349 8.89011 36.2068 8.72964 35.6665 8.72943H35.6654C34.9412 8.72976 34.2468 9.0176 33.7346 9.52972C33.2225 10.0418 32.9344 10.7364 32.9338 11.4608ZM14.3173 42.151C12.098 42.0499 10.8917 41.6801 10.09 41.3677C9.02723 40.9538 8.26893 40.4609 7.47165 39.6645C6.67438 38.8681 6.18086 38.1103 5.76893 37.0472C5.45643 36.2457 5.08675 35.0387 4.98586 32.8187C4.8755 30.4185 4.85347 29.6975 4.85347 23.6168C4.85347 17.536 4.87732 16.817 4.98586 14.4149C5.08693 12.1949 5.45934 10.9902 5.76893 10.1864C6.18268 9.12326 6.67547 8.36474 7.47165 7.56723C8.26783 6.76973 9.02541 6.27607 10.09 5.86402C10.8913 5.55143 12.098 5.18164 14.3173 5.08073C16.7168 4.97034 17.4376 4.94829 23.5138 4.94829C29.5901 4.94829 30.3116 4.97216 32.7131 5.08073C34.9324 5.18183 36.1367 5.55435 36.9404 5.86402C38.0032 6.27607 38.7615 6.77082 39.5587 7.56723C40.356 8.36365 40.8477 9.12326 41.2615 10.1864C41.574 10.9879 41.9436 12.1949 42.0445 14.4149C42.1549 16.817 42.1769 17.536 42.1769 23.6168C42.1769 29.6975 42.1549 30.4165 42.0445 32.8187C41.9435 35.0387 41.572 36.2453 41.2615 37.0472C40.8477 38.1103 40.3549 38.8688 39.5587 39.6645C38.7626 40.4602 38.0032 40.9538 36.9404 41.3677C36.1391 41.6803 34.9324 42.0501 32.7131 42.151C30.3136 42.2614 29.5928 42.2834 23.5138 42.2834C17.4348 42.2834 16.7161 42.2614 14.3173 42.151ZM14.1288 0.984271C11.7055 1.09466 10.0496 1.47902 8.60346 2.0419C7.10579 2.62318 5.83795 3.40302 4.57102 4.66831C3.30408 5.93361 2.52648 7.20382 1.94537 8.70192C1.38265 10.1494 0.998398 11.8049 0.88804 14.2289C0.775861 16.6567 0.750183 17.4329 0.750183 23.6166C0.750183 29.8003 0.775861 30.5765 0.88804 33.0043C0.998398 35.4285 1.38265 37.0838 1.94537 38.5313C2.52648 40.0285 3.30426 41.3001 4.57102 42.5649C5.83777 43.8296 7.10579 44.6084 8.60346 45.1913C10.0523 45.7542 11.7055 46.1385 14.1288 46.2489C16.5573 46.3593 17.332 46.3868 23.5138 46.3868C29.6957 46.3868 30.4717 46.3611 32.8988 46.2489C35.3223 46.1385 36.9772 45.7542 38.4242 45.1913C39.921 44.6084 41.1897 43.8302 42.4566 42.5649C43.7236 41.2996 44.4996 40.0285 45.0823 38.5313C45.645 37.0838 46.0311 35.4283 46.1396 33.0043C46.25 30.5746 46.2757 29.8003 46.2757 23.6166C46.2757 17.4329 46.25 16.6567 46.1396 14.2289C46.0293 11.8047 45.645 10.1485 45.0823 8.70192C44.4996 7.20473 43.7216 5.93561 42.4566 4.66831C41.1917 3.40101 39.921 2.62318 38.426 2.0419C36.9772 1.47902 35.3222 1.09284 32.9007 0.984271C30.4735 0.873881 29.6975 0.846375 23.5157 0.846375C17.3338 0.846375 16.5573 0.872059 14.1288 0.984271Z" fill="white"/>
</svg>
