<svg width="119" height="64" viewBox="0 0 119 64" fill="none" xmlns="http://www.w3.org/2000/svg">
<path d="M8.0093 60.5C13.5349 57.8333 24.787 51.9 25.5907 49.5H29.6093L34.1302 46L40.6605 50.5L45.6837 47L50.2047 48L62.2605 36L74.3163 48L82.8558 44.5L90.893 52H94.9116L114 63H80.3442H24.0837H6L8.0093 60.5Z" fill="#D9D9D9"/>
<path d="M40.6605 50.5L34.1302 46L29.6093 49.5H25.5907C24.787 51.9 13.5349 57.8333 8.0093 60.5L6 63H24.0837M40.6605 50.5L45.6837 47L50.2047 48L62.2605 36L74.3163 48M40.6605 50.5L39.3343 51.5M74.3163 48L82.8558 44.5L90.893 52H94.9116L114 63H80.3442M74.3163 48L75.8233 50L78.8372 52L81.3488 52.5L83.8605 55.5L95.414 62L83.8605 53.5L82.3535 51.5L77.8326 51L76.8279 49L79.8419 48.5L81.3488 47L82.3535 46L82.8558 47L85.3674 49M80.3442 63L70.8 55C70.4651 53.3333 69.6949 49.8 69.293 49C68.8912 48.2 67.4512 48 66.7814 48L67.786 46L71.8047 49C71.0009 45.8 65.4419 41.3333 62.7628 39.5V44.5L64.7721 45L65.2744 47V48.5L66.7814 49.5L67.786 51V55L69.293 57.5L72.8093 62L71.8047 58.5L80.3442 63ZM80.3442 63H24.0837M85.3674 49V52L86.3721 53L86.8744 52.5L88.3814 53.5L89.8884 56L91.8977 58.5L94.4093 60L93.4047 58.5L91.8977 56L90.893 54L89.8884 53.5L88.3814 52L86.3721 50.5L85.3674 49ZM24.0837 63L24.586 60.5L27.0977 57.5L28.6047 56L29.6093 54V56.5C29.4419 57.1667 29.2074 58.3 29.6093 57.5C30.0112 56.7 31.1163 55.5 31.6186 55L29.6093 52L28.6047 51H30.614L31.6186 53L34.1302 54L36.1395 53V52H35.1349V50.5V48.5L36.1395 49L39.3343 51.5M24.0837 63L39.3343 51.5M42.1674 62L49.2 57.5H54.7256V56H53.2186L51.2093 54L46.186 53.5L42.1674 55L46.6884 51L47.1907 49L54.7256 54L55.7302 55H57.2372L60.2512 53L60.7535 50L62.7628 48.5L61.7581 51.5V53.5L60.2512 54L57.2372 56.5L55.7302 58.5L49.7023 59L42.1674 62ZM50.2047 62L60.7535 56L62.7628 53V51L63.7674 50V48L65.2744 50.5L66.7814 52V54V56.5L68.7907 60.5L63.7674 56L59.2465 59L54.2233 61.5L51.7116 62H50.2047ZM73.814 51L81.3488 62L80.8465 60L80.3442 59V57.5V57H80.8465H81.8512L82.3535 57.5L83.8605 58.5L88.8837 60.5L91.8977 62L88.3814 59L85.3674 57.5L81.3488 55.5L80.3442 55H78.8372L76.8279 52.5L74.8186 51.5L73.814 51ZM94.4093 54V56L96.9209 58.5L99.4326 59L102.447 60.5L104.456 61.5L94.4093 54Z" stroke="black"/>
<path d="M28.8131 56.5121C28.6196 56.9784 28.2438 57.5106 27.8141 57.7938C27.598 57.9362 27.4035 58.1331 27.1748 58.2534C26.9697 58.3612 26.7498 58.442 26.5532 58.565C25.9916 58.9159 25.3221 59.2819 25.0769 59.9328C24.9825 60.1832 24.8307 60.3889 24.7727 60.6487C24.7564 60.7219 24.4624 61.1935 24.6884 61.0465C25.1906 60.7196 25.604 60.2715 26.0648 59.893C26.5252 59.5147 27.032 59.2496 27.5189 58.9141C27.716 58.7782 27.8362 58.6035 28.005 58.4523C28.1387 58.3325 28.3209 58.2936 28.4535 58.1805C28.5948 58.0599 28.7878 57.9994 28.9485 57.9043C29.0621 57.8371 29.1045 57.7405 29.1949 57.6634C29.2541 57.6129 29.2613 57.5271 29.3148 57.4689C29.4471 57.3253 29.4924 57.6926 29.4924 57.7628C29.4924 58.0424 29.4962 58.3421 29.2127 58.4832C29.0255 58.5764 28.8409 58.6119 28.6533 58.6998C27.8149 59.0924 26.9343 59.5711 26.2734 60.2289C26.1539 60.3479 25.9434 60.439 25.7961 60.5316C25.6965 60.5943 25.5811 60.6314 25.4942 60.7106C25.4407 60.7594 25.3957 60.8294 25.3277 60.8564C25.1522 60.9263 25.0472 61.1303 24.8771 61.2056C24.8079 61.2362 24.7916 61.3025 24.735 61.3448C24.6211 61.4298 24.704 61.4773 24.786 61.3956C25.2885 60.8955 25.6907 60.2962 26.1957 59.7936C26.42 59.5704 26.7871 59.4105 27.0638 59.2478C27.5793 58.9445 28.1662 58.7705 28.691 58.4832C28.9826 58.3236 29.2148 58.106 29.4547 57.8822C29.5979 57.7485 29.6775 57.5721 29.8521 57.4756C30.0248 57.3801 30.2038 57.2555 30.3893 57.1883C30.5205 57.1408 30.7853 57.0001 30.891 56.9099C31.1813 56.6622 31.5006 56.5077 31.8545 56.3707C32.1133 56.2705 32.3434 56.1619 32.5782 56.026C32.8419 55.8734 33.1734 55.8001 33.4063 55.5973C33.6713 55.3665 33.9657 55.2158 34.2565 55.0228C34.4364 54.9034 34.7363 54.6007 34.7272 54.3731C34.7231 54.2711 34.2913 54.5896 34.2388 54.6339C34.1601 54.7001 34.0611 54.7079 33.9679 54.74C33.8411 54.7836 33.7315 54.8972 33.5994 54.9212C33.1517 55.0022 32.776 55.1948 32.3473 55.3167C32.2599 55.3416 31.3351 55.6973 31.4593 55.8581C31.4885 55.8958 32.5676 55.0024 32.7691 54.8018C32.8769 54.6946 33.0151 54.603 33.1687 54.603C33.3778 54.603 32.7562 54.3178 32.7092 54.245C32.6185 54.1045 32.4878 53.965 32.3695 53.8472C32.2582 53.7364 32.1105 53.7249 31.9855 53.6484C31.8461 53.563 31.6985 53.4355 31.5504 53.3699C31.4329 53.318 31.3805 53.1174 31.3217 53.012C31.17 52.7402 30.9998 52.5083 30.9221 52.1988C30.8945 52.0887 30.7927 51.6433 30.6513 51.6198C30.5264 51.5991 30.3534 51.5454 30.2295 51.5005C30.1649 51.4772 30.0655 51.4029 29.9941 51.4232C29.9629 51.4321 30.1177 51.8769 30.1407 51.9292C30.239 52.1528 30.4049 52.3271 30.5114 52.5391C30.7705 53.055 31.0692 53.6843 31.4815 54.0947C31.7005 54.3127 31.9439 54.4975 32.1697 54.7223" stroke="black" stroke-linecap="round"/>
<path d="M35.6862 49.3527C35.6862 49.7836 35.6862 50.2145 35.6862 50.6454C35.6862 50.7825 35.7158 51.2662 35.866 51.2994C36.1485 51.3619 36.1257 50.6062 36.1257 50.4487C36.1257 50.2208 36.2274 50.029 36.2456 49.8212C36.2729 49.5081 36.4454 50.4284 36.4454 50.7426C36.4454 51.1925 36.478 51.5928 36.5853 52.0198C36.6338 52.213 36.7152 52.331 36.7673 52.5126C36.8144 52.6768 37.4683 52.1487 37.5243 52.1369C37.6133 52.1183 37.6271 51.9948 37.6841 51.9381C37.7499 51.8726 37.8554 51.8441 37.9328 51.7966C37.9992 51.7559 38.0609 51.7974 38.1148 51.7303C38.17 51.6617 38.0901 51.4814 38.0638 51.4232C37.977 51.2312 37.7872 51.1636 37.6619 51.0033C37.6063 50.9322 37.4997 50.8365 37.4866 50.7448C37.4764 50.6737 37.4052 50.4355 37.3245 50.4266C37.0401 50.3952 37.2062 50.9677 37.3067 51.1249C37.4216 51.3045 37.4805 51.5018 37.2446 51.5801" stroke="black" stroke-linecap="round"/>
<path d="M47.5143 49.9493C47.5143 50.1555 47.5143 50.3618 47.5143 50.568C47.5143 50.7695 47.3911 50.8364 47.3056 50.9835C47.1397 51.2687 46.8747 51.5088 46.6752 51.7701C46.5899 51.8817 46.3917 51.9312 46.2711 52.0021C45.9998 52.1617 45.7388 52.3417 45.4675 52.5037C45.2982 52.6048 45.1587 52.6918 45.039 52.8507C45.0037 52.8975 44.9396 52.9413 44.9169 52.9921C44.894 53.0434 44.765 53.1313 44.8215 53.1313C45.1392 53.1313 45.3811 52.9234 45.6762 52.844C45.7322 52.8289 46.1836 52.7189 46.0314 52.7358C45.7909 52.7623 45.5357 52.9201 45.3076 53.012C45.1858 53.0611 44.9593 53.114 44.857 53.1932C44.775 53.2566 44.5785 53.3593 44.4774 53.3699C44.3911 53.379 44.3725 53.4097 44.4751 53.4097C44.5945 53.4097 44.7223 53.3818 44.837 53.3501C45.4606 53.1776 46.0473 52.8516 46.6618 52.6452C46.8525 52.5811 47.0378 52.522 47.1968 52.3977C47.3182 52.3028 47.5024 52.3228 47.632 52.2341C47.8033 52.1169 47.8951 51.7987 47.9849 51.6199C48.1373 51.3166 48.2336 51.0941 48.2336 50.7448C48.2336 50.5756 48.168 50.4212 48.0182 50.6034C47.8845 50.7661 48.026 51.2022 47.9627 51.4121C47.8901 51.6532 47.8079 51.9105 47.6941 52.1369C47.5829 52.3583 47.3538 52.4721 47.239 52.6761C47.1451 52.843 47.0509 53.0373 46.9637 53.2108C46.9033 53.3312 47.1493 53.2904 47.2146 53.2904C47.3834 53.2904 47.5711 53.2203 47.7319 53.1711C48.0348 53.0783 48.327 53.0915 48.6421 53.0915C48.8553 53.0915 49.0481 53.1359 49.2548 53.1733C49.3339 53.1876 49.3752 53.2618 49.4546 53.2816C49.584 53.3138 49.6831 53.2946 49.8009 53.3699C49.9947 53.494 50.2386 53.5228 50.458 53.5688C50.7199 53.6237 50.9573 53.7318 51.2283 53.7655C51.4747 53.7961 51.7061 53.9592 51.3016 53.7368C51.2061 53.6842 51.107 53.6467 51.0108 53.6042C50.8944 53.5527 50.7692 53.3735 50.6578 53.297C50.4295 53.1403 50.1655 53.0309 49.9252 52.8926C49.6424 52.7299 49.3168 52.726 49.0417 52.5767C48.7868 52.4383 48.4699 52.4803 48.2158 52.3358C48.122 52.2824 48.2719 51.6972 48.2735 51.6022C48.2775 51.3766 48.2783 51.2052 48.3623 50.9923C48.5347 50.5557 48.9529 51.1835 48.9529 51.421C48.9529 51.6111 49.042 51.769 49.0705 51.9535C49.1112 52.217 49.1926 52.1093 49.1926 51.8629C49.1926 51.6244 49.1127 51.4029 49.1127 51.1602C49.1127 50.8862 49.4495 51.4697 49.4901 51.5359C49.5644 51.657 49.7521 51.8568 49.7521 51.9867C49.7521 52.1788 49.7 52.3588 49.9519 52.2872C50.0676 52.2543 50.1751 52.06 50.2538 52.1436C50.3311 52.2257 50.3914 52.2931 50.3914 52.4065C50.3914 52.5528 50.3396 52.2337 50.3204 52.1855C50.3044 52.1454 50.1835 51.8888 50.236 51.8497C50.2826 51.8149 50.4768 52.4871 50.4935 52.5523C50.5515 52.7778 50.6836 53.0575 50.8265 53.2462C50.8881 53.3275 50.9908 53.5029 50.9908 53.3257C50.9908 53.1814 50.9908 53.037 50.9908 52.8926C50.9908 52.6968 51.0707 52.5132 51.0707 52.327C51.0707 52.1277 51.1561 52.5102 51.1728 52.5523C51.2377 52.7152 51.3131 52.8701 51.4126 53.0142C51.5555 53.2211 51.6795 53.512 51.7478 53.75C51.7738 53.8405 51.7965 54.1911 51.7811 54.1699C51.6287 53.9598 51.5514 53.6856 51.4503 53.4495C51.3735 53.2699 51.2306 53.0532 51.2306 52.8529C51.2306 52.6673 51.2306 52.4816 51.2306 52.296C51.2306 52.0508 51.1283 52.0176 50.9109 52.0176C50.8013 52.0176 50.694 51.9865 50.7666 52.1347C50.9624 52.5343 51.347 52.8038 51.6879 53.0716C51.9642 53.2888 52.3752 53.5689 52.5004 53.9179C52.5765 54.13 52.6026 54.3527 52.6891 54.5632C52.7191 54.6362 53.0165 55.1543 53.0265 55.0493C53.0454 54.8523 53.0008 54.6492 52.9888 54.4527C52.984 54.3743 52.9112 54.3669 52.9089 54.2848C52.9039 54.1068 52.9089 53.9281 52.9089 53.75C52.9089 53.6683 52.937 53.5232 52.9 53.4495C52.892 53.4335 52.769 53.2712 52.8578 53.3456C53.0684 53.5221 53.1607 53.8154 53.344 54.0174C53.4955 54.1844 53.7717 54.5437 53.788 54.7709C53.8027 54.9754 53.9659 55.1365 54.0277 55.3211C54.0535 55.3981 54.1041 55.4589 54.1476 55.5266C54.2035 55.6135 54.1476 55.3235 54.1476 55.2482C54.1476 54.9863 54.2626 54.7583 54.2675 54.5013C54.2686 54.4433 54.2441 54.2824 54.3119 54.4173C54.4247 54.6418 54.5471 54.8478 54.6849 55.0582C54.7787 55.2014 54.8427 55.3599 54.9069 55.5178C54.9531 55.6314 55.0624 55.7812 55.0667 55.9067C55.0688 55.9673 55.0994 56.1563 55.0578 56.2028C55.0336 56.2299 54.3109 55.2798 54.2187 55.1731C53.9819 54.8991 53.828 54.7203 53.828 54.3643C53.828 54.2582 53.828 54.1522 53.828 54.0461C53.828 53.748 54.1913 54.2799 54.2253 54.3378C54.4263 54.6795 54.6489 55.0528 54.7159 55.4382C54.75 55.6339 54.8269 55.7328 54.8269 55.9398C54.8269 56.2138 54.9082 56.5649 55.0267 56.8127C55.0975 56.9606 55.1919 57.1475 55.3065 57.2679C55.3869 57.3523 55.64 57.5281 55.504 57.6634C55.3596 57.8072 54.9877 57.8645 54.7848 57.8645C53.9848 57.8645 53.1849 57.8645 52.385 57.8645C51.5554 57.8645 50.7259 57.8645 49.8964 57.8645C49.0857 57.8645 48.5423 58.3137 47.8562 58.6688C47.5295 58.8379 47.2058 59.0674 46.8661 59.2168C46.7677 59.2601 46.192 59.6541 46.5508 59.5549C46.7526 59.4991 46.918 59.345 47.0836 59.2257C47.3738 59.0166 47.7112 58.8983 48.0515 58.7815C48.2629 58.709 48.433 58.6654 48.6598 58.66C49.3326 58.6438 49.9827 58.3816 50.6511 58.3816C51.3118 58.3816 51.881 58.3216 52.5315 58.218C52.8066 58.1742 53.1012 57.9732 53.3484 57.8468C53.5183 57.76 53.696 57.689 53.8679 57.617C54.1939 57.4804 54.5515 57.4559 54.8669 57.3076C55.122 57.1877 55.388 57.0768 55.6261 56.9254C55.8472 56.7848 56.073 56.6083 56.2655 56.4304C56.422 56.2857 56.4751 56.0959 56.6052 55.9376C56.6956 55.8276 56.7254 55.6497 56.896 55.6371C56.9667 55.6319 57.0381 55.6011 57.1047 55.5774C57.2063 55.5413 56.9645 56.0354 56.9226 56.11C56.8406 56.256 56.7011 56.3573 56.6562 56.521C56.626 56.6312 56.5446 56.7472 56.4653 56.8303C56.4044 56.8941 56.3264 56.9332 56.2655 56.9939C56.177 57.0819 56.1657 57.1914 56.0457 57.248C55.8772 57.3275 55.5116 57.6825 55.3908 57.5419C55.1155 57.2212 55.0177 56.95 55.0889 56.5453C55.1476 56.2113 55.2364 56.0081 55.4752 55.7874C55.5487 55.7194 55.6622 55.6408 55.7549 55.6062C55.9187 55.545 56.1195 55.955 56.1367 56.0702C56.1633 56.248 56.1522 56.4341 56.0479 56.5851C55.9418 56.7387 55.8311 56.1641 55.8282 56.1034C55.8217 55.9724 55.8232 55.839 55.8259 55.7078C55.8273 55.6424 55.835 55.2369 55.9458 55.394C56.0073 55.4813 56.0562 55.67 56.17 55.71C56.2578 55.7409 56.4042 55.7046 56.4875 55.6857C56.8346 55.6072 57.1752 55.4763 57.5109 55.3609C57.8844 55.2325 58.3783 55.1084 58.6986 54.8593C58.7765 54.7987 58.9028 54.558 58.9028 54.751C58.9028 55.1346 58.7255 55.4303 58.5521 55.7564C58.5136 55.8287 58.3556 55.7962 58.2812 55.7962C57.7583 55.7962 57.2603 55.9553 56.745 55.9553" stroke="black" stroke-linecap="round"/>
<path d="M53.7479 55.3587C53.5942 55.355 53.3883 55.3825 53.3883 55.1996" stroke="black" stroke-linecap="round"/>
<path d="M61.8998 49.8698C61.7641 50.1709 61.5552 50.4122 61.4291 50.705C61.3055 50.992 61.3147 51.2933 61.2027 51.5801C61.022 52.0426 60.9008 52.5116 60.9008 53.012" stroke="black" stroke-linecap="round"/>
<path d="M52.5891 61.2453C53.0362 61.3322 52.9848 61.0629 53.1485 60.7459C53.2734 60.5043 53.5498 60.4113 53.8034 60.3725C53.9247 60.3539 53.9766 60.4896 54.0876 60.4896C54.2677 60.4896 54.3225 60.3895 54.4583 60.2907C54.7769 60.059 55.1556 59.915 55.5284 59.7913C55.638 59.755 55.7358 59.714 55.8503 59.6919C55.926 59.6773 56.1427 59.5675 55.9613 59.6411C55.8055 59.7042 55.6768 59.8231 55.5217 59.893C55.2819 60.0011 55.0281 60.0888 54.7714 60.1471C54.2371 60.2684 53.7837 60.3289 53.3173 60.6178C53.2452 60.6624 52.7939 61.1193 52.9088 61.126C53.1068 61.1376 53.3815 60.9366 53.5504 60.8476C53.8477 60.6909 54.2571 60.7195 54.5294 60.5471C54.7504 60.4071 55.0309 60.3284 55.2753 60.2421C55.9109 60.0176 56.4916 59.7438 57.0557 59.3759C57.354 59.1814 57.6949 59.0529 57.9815 58.839C58.2295 58.6538 57.703 59.0606 57.6485 59.0953C57.3634 59.2764 57.1522 59.3491 56.8337 59.4466C56.6559 59.5011 56.472 59.5002 56.2876 59.4952C56.2228 59.4935 55.7419 59.3323 55.928 59.2986C56.3093 59.2296 56.6439 58.9738 57.0069 58.8368C57.3996 58.6885 57.7888 58.5331 58.1813 58.3838C58.5496 58.2436 58.8886 58.1594 59.2224 57.944C59.7025 57.6343 60.215 57.3691 60.7009 57.0668C60.8661 56.964 61.0713 56.8691 61.2226 56.7486C61.3594 56.6397 61.5368 56.595 61.66 56.4724C61.8948 56.2386 62.1674 56.0561 62.3793 55.805C62.449 55.7223 62.5283 55.7042 62.5879 55.5973C62.6668 55.456 62.7237 55.316 62.4858 55.4581C62.3892 55.5158 62.3361 55.6914 62.2372 55.7719C61.9926 55.9711 62.1755 55.4764 62.2194 55.4073C62.3769 55.1598 62.5791 54.9142 62.5791 54.6228C62.5791 54.4874 62.6304 54.3551 62.679 54.2295C62.7845 53.9563 62.5685 54.4987 62.5435 54.5565C62.4159 54.8529 62.254 55.2053 61.9885 55.3984C61.8955 55.4661 61.8431 55.5929 61.7799 55.6857C61.7023 55.7995 61.5878 55.8855 61.5179 56.0039C61.445 56.1275 61.4121 56.2583 61.3225 56.3729C61.2411 56.4771 61.457 56.3835 61.4713 56.3751C61.83 56.1641 62.065 55.6807 62.2905 55.3476C62.5956 54.8967 62.7389 54.501 62.7389 53.9666C62.7389 53.5356 62.7118 53.1904 63.0186 52.8529C63.1313 52.7289 63.2757 52.6125 63.3294 52.4463C63.3832 52.2797 63.3383 52.0324 63.3383 51.8607C63.3383 51.6138 63.2382 51.3779 63.3782 51.1514C63.5036 50.9486 63.7611 50.8981 63.8755 50.7028C63.9211 50.6251 64.0432 50.432 64.0553 50.347C64.0697 50.2474 64.0194 50.1066 64.0975 50.0288C64.3144 49.813 64.2668 50.853 64.2574 50.9172C64.2068 51.2609 64.1564 51.697 63.9976 52.0132C63.9372 52.1334 63.8613 52.2914 63.7601 52.3778C63.6756 52.4498 63.6516 52.7641 63.6269 52.875C63.5325 53.2979 63.4706 53.7182 63.3605 54.1411C63.305 54.3542 63.2983 54.6044 63.2983 54.8239C63.2983 54.9402 63.265 55.0964 63.3982 55.1554C63.4403 55.174 63.6358 55.2587 63.5692 55.3498C63.4782 55.4743 63.3009 55.5377 63.2273 55.6769C63.08 55.9555 63.5396 55.6081 63.5936 55.531C63.8919 55.1057 63.8981 54.5106 63.9954 54.0174C64.0478 53.7519 64.0943 53.4891 64.1464 53.2241C64.2849 52.5193 64.5371 51.8331 64.5371 51.1204C64.5371 51.0167 64.5942 50.8139 64.7169 50.7868C64.8938 50.7476 65.0765 51.3613 65.1187 51.4828C65.2353 51.8187 65.2668 52.0493 65.4983 52.3181C65.6468 52.4905 65.656 52.3507 65.656 52.1988C65.656 51.9085 65.8517 52.2281 65.9113 52.3513C66.0636 52.6663 66.2953 52.9431 66.2953 53.3081C66.2953 53.5196 66.2154 53.7116 66.2154 53.9268C66.2154 54.1484 66.2536 54.4104 66.1932 54.625C66.0738 55.0496 66.0448 55.4554 66.1976 55.8669C66.257 56.0269 66.2391 56.2218 66.2953 56.3928C66.3777 56.6437 66.3802 56.9069 66.4463 57.1618C66.5195 57.4444 66.5647 57.8421 66.8348 58.0214C66.9483 58.0967 66.9981 58.1589 67.0279 58.2976C67.0468 58.3851 66.759 58.3296 66.7193 58.313C66.4943 58.2191 66.3981 57.8033 66.3131 57.6037C66.1361 57.1883 65.8554 56.7257 65.7536 56.2867C65.7096 56.0969 65.7293 55.8961 65.687 55.7034C65.6421 55.4982 65.5958 55.297 65.5783 55.0869C65.5455 54.6959 65.7758 54.4166 65.7758 54.0417C65.7758 53.8509 65.7758 53.6601 65.7758 53.4694C65.7758 53.3424 65.8558 53.2578 65.8558 53.1313C65.8558 52.9767 65.8644 52.8524 65.7936 52.7114C65.6583 52.4421 65.4248 53.1459 65.3785 53.244C65.3411 53.3229 65.3095 53.3872 65.2941 53.4716C65.2803 53.547 65.2041 53.5672 65.1809 53.6307C65.1196 53.7985 65.0965 53.2116 65.0965 53.1092C65.0965 52.9737 65.0965 52.8381 65.0965 52.7026C65.0965 52.4404 65.1203 53.229 65.0876 53.4893C65.0231 54.0028 64.8927 54.4867 64.7413 54.9764C64.7056 55.092 64.7369 55.2575 64.7369 55.3786C64.7369 55.5474 64.8154 55.6151 64.8656 55.7653C64.8719 55.7838 64.8999 55.9454 64.879 55.9199C64.6999 55.7021 64.7104 55.2477 64.7236 54.9919C64.7468 54.5407 64.9697 54.1857 65.0876 53.7633C65.1286 53.6164 65.1487 53.4703 65.1986 53.3257C65.2414 53.2019 65.6998 52.1369 65.4362 52.1369C65.1589 52.1369 65.0473 52.2968 64.9278 52.5347C64.7547 52.8792 64.7394 53.3828 64.6658 53.7765C64.6235 54.003 64.605 54.1861 64.4971 54.4041C64.3699 54.661 64.3772 54.8456 64.3772 55.1333C64.3772 55.456 64.4619 55.759 64.5682 56.0658C64.6542 56.3142 64.8737 56.4461 65.0077 56.6624C65.135 56.8677 65.2215 56.9714 65.4539 57.0292C65.5018 57.0411 65.5641 57.1232 65.5472 57.0933C65.4825 56.9788 65.3591 56.8571 65.3407 56.7243C65.3174 56.556 65.4371 56.085 65.2564 55.9951" stroke="black" stroke-linecap="round"/>
<path d="M63.3225 40.4435C63.3225 41.4913 63.3798 42.5449 63.3798 43.6009C63.3798 43.8411 63.3479 43.973 63.641 43.9813C64.0146 43.992 64.0033 43.4715 63.9244 43.1888C63.7558 42.5844 64.0678 41.9825 64.0678 41.385C64.0678 41.2017 63.9871 40.8192 64.0136 41.2424C64.052 41.854 64.0931 42.5717 64.4117 43.1127C64.5914 43.4177 64.5695 43.7892 64.6442 44.124C64.6944 44.3489 64.8615 44.5398 64.8703 44.7675C64.8795 45.0054 65.0906 45.2376 65.0551 44.7866C65.0018 44.1104 65.0423 43.4607 65.0423 42.7862C65.0423 42.5802 65.2901 41.4335 64.9563 41.3597C64.3747 41.231 64.8326 42.3185 64.9723 42.5548C65.0179 42.632 65.4249 42.4407 65.5646 42.4407C65.825 42.4407 66.0835 42.3816 66.2462 42.6245C66.558 43.0901 66.7826 43.5221 67.0169 44.0099C67.1918 44.3738 67.4928 44.9479 67.8482 45.1543C68.1969 45.3568 68.443 45.8512 68.7113 46.1497C68.8441 46.2974 68.8946 46.4758 69.0011 46.6347C69.1219 46.8151 69.2966 46.9286 69.4565 47.0627C69.536 47.1293 69.771 47.2795 69.8706 47.2909C70.0585 47.3125 70.3255 47.6767 70.2018 47.3195C70.1239 47.0947 70.0031 47.0249 69.9024 46.8344C69.7906 46.6229 69.7505 46.4488 69.6572 46.2321C69.5908 46.078 69.49 45.8699 69.3387 45.782C69.1328 45.6624 69.0036 45.7098 68.896 45.4206C68.7575 45.0485 68.4772 44.7109 68.2208 44.4093C68.0515 44.2102 67.9449 44.0543 67.7112 43.9275C67.3321 43.7216 66.926 43.5268 66.5456 43.3093C66.3558 43.2008 66.1166 43.1183 65.9914 42.9225C65.98 42.9047 65.9328 42.6899 65.9723 42.6943C66.084 42.7066 66.1611 43.1032 66.1761 43.1825C66.239 43.5143 66.2469 43.708 66.1443 44.0257C66.0803 44.224 66.0742 44.433 66.0742 44.6407C66.0742 45.0391 66.0742 45.4375 66.0742 45.8359C66.0742 45.9118 66.0824 46.0613 66.1889 46.08C66.2723 46.0946 66.2464 45.2155 66.2494 45.1321C66.2656 44.6813 66.411 44.2402 66.4182 43.7975C66.4237 43.4546 66.5036 42.9754 66.3322 42.6721C66.032 42.1409 66.1087 43.461 66.1315 43.5946C66.1784 43.8684 66.2337 44.2022 66.1761 44.4822C66.0362 45.1631 65.8399 44.3657 65.7589 44.0701C65.7319 43.9717 65.7311 43.4369 65.6602 43.3663C65.4257 43.133 65.4632 44.178 65.4755 44.2286C65.6 44.7421 65.7447 45.1865 65.7303 45.7186C65.7238 45.9578 65.6156 46.1571 65.6156 46.4096C65.6156 46.6446 65.6583 46.8182 65.7876 47.0183C65.8638 47.1363 66.0092 47.4385 66.0169 47.5762C66.0213 47.6559 65.9719 48.0077 66.0487 48.0296C66.2154 48.077 66.5998 46.9757 66.7621 46.7171C66.8263 46.615 66.8433 46.4993 66.8895 46.3906C66.9316 46.2916 67.066 46.2621 67.1316 46.1782C67.2658 46.0065 67.4108 45.7024 67.3927 45.4776C67.3788 45.3041 66.6701 45.478 66.5488 45.3572C66.4231 45.2321 66.7843 46.0225 66.7048 45.8644" stroke="black" stroke-linecap="round"/>
<path d="M66.9914 44.552C66.4475 44.5068 66.706 45.0862 66.9054 45.373C67.0429 45.5706 66.9648 45.421 66.7175 45.4649C66.578 45.4898 66.3825 46.1934 66.364 46.3494C66.3348 46.5969 66.3283 46.6798 66.1315 46.435" stroke="black" stroke-linecap="round"/>
<path d="M66.1995 48.3311C66.3196 48.5122 66.463 48.9474 66.6695 49.0501C66.7624 49.0964 66.8561 49.1133 66.9436 49.1693C67.0749 49.2532 67.1936 49.3402 67.3135 49.4378C67.4331 49.5352 67.2538 49.1566 67.2374 49.1108C67.2063 49.024 67.1786 48.8712 67.1786 48.7794C67.1786 48.6168 67.3076 48.8449 67.3897 48.9137C67.4881 48.9961 67.5112 49.0934 67.6486 49.1129C67.707 49.1212 68.0042 49.2185 67.7988 49.1844C67.4771 49.1311 67.2959 48.9262 67.0611 48.7426C66.9292 48.6394 66.7072 48.4499 66.676 48.2791C66.6639 48.2128 67.3537 48.5108 67.4289 48.5628C67.5512 48.6476 67.6771 48.6944 67.7661 48.8162C67.8695 48.9577 68.0086 49.013 68.1556 49.0935C68.2972 49.171 68.408 49.3022 68.532 49.4032C68.6052 49.4628 68.8323 49.9778 68.7605 49.962C68.6253 49.932 68.5638 49.6288 68.5103 49.5223C68.4431 49.3886 68.3305 49.0328 68.1491 49.0328C67.954 49.0328 68.0011 49.138 68.0011 49.3144C68.0011 49.4674 68.0011 49.6205 68.0011 49.7735C68.0011 49.9085 68.0238 49.9895 68.0708 50.1157C68.1077 50.215 68.2247 50.2893 68.2361 50.3973C68.2589 50.6129 68.3928 50.8034 68.3928 51.0211C68.3928 51.8868 68.432 52.7692 68.432 53.6417C68.432 53.8857 68.432 54.1298 68.432 54.3738C68.432 54.4597 68.432 54.5456 68.432 54.6315C68.432 54.7944 68.4896 54.887 68.5081 55.0344C68.5391 55.281 68.729 55.4899 68.7845 55.7383C68.8554 56.056 69.1884 56.2387 69.311 56.5526C69.4278 56.8515 69.4639 57.1787 69.6048 57.4709C69.6947 57.6573 69.7015 57.8028 69.842 57.9626C69.8805 58.0065 69.9164 58.1004 69.979 58.1142C70.0187 58.123 70.0618 58.1056 70.0944 58.138C70.2708 58.3136 70.4951 58.4273 70.6449 58.6427C70.8036 58.8709 70.9271 59.0823 71.1127 59.2838C71.1986 59.3771 71.3291 59.4214 71.4282 59.4982C71.6042 59.6344 71.4718 59.3037 71.4478 59.2296C71.3754 59.0064 71.3305 58.7775 71.2324 58.5625C71.1754 58.4378 71.2314 58.3789 71.0953 58.2918C71.0154 58.2407 70.9008 58.249 70.8429 58.1748C70.8056 58.1271 70.7934 57.9622 70.7841 57.9019C70.7596 57.743 70.6308 57.7289 70.5622 57.6074C70.3974 57.3159 70.3099 57.0348 70.2162 56.7151C70.1645 56.5385 70.1218 56.3793 70.0574 56.2018C69.9881 56.011 69.9406 55.7126 69.7854 55.5802C69.7299 55.5328 69.6998 55.4754 69.6331 55.4286C69.5469 55.368 69.6809 55.5113 69.7027 55.5607C69.7645 55.7005 69.7826 55.9343 69.5743 55.7166C69.4032 55.5378 69.5022 55.1617 69.4525 54.9391C69.3992 54.7006 69.2501 54.5839 69.3241 54.3261C69.4103 54.0259 69.3328 53.6245 69.3328 53.3125C69.3328 52.7564 69.2038 52.2348 69.1761 51.6838C69.1703 51.5675 69.0317 51.5258 68.989 51.4196C68.9537 51.3318 68.9411 51.2808 68.9411 51.177C68.9411 50.9765 68.9233 50.858 69.0499 50.7005C69.2384 50.466 69.4177 51.0006 69.459 51.138C69.5511 51.4449 69.602 51.7672 69.7245 52.065C69.8414 52.3494 69.9098 52.6652 69.9203 52.979C69.9317 53.3196 70.0058 53.65 70.04 53.9904C70.0771 54.36 70.2728 54.7224 70.2728 55.095C70.2728 55.4289 70.5521 55.7978 70.6623 56.1086C70.769 56.4097 70.9045 56.6909 71.0148 56.9836C71.0606 57.1053 71.1487 57.2523 71.2324 57.354C71.312 57.4509 71.4104 57.5315 71.4826 57.6291C71.6613 57.8705 71.8565 58.0667 72.094 58.2506C72.2398 58.3635 72.4185 58.5081 72.5814 58.5993C72.708 58.6702 72.791 58.8215 72.9339 58.8571C73.0966 58.8976 73.2526 59.0341 73.4018 59.1083C73.5223 59.1683 73.6459 59.2021 73.7608 59.2664C74.0753 59.4426 74.4097 59.5878 74.6986 59.8014C74.947 59.9851 75.114 60.2509 75.4428 60.2606C75.6579 60.2669 75.8306 60.3952 75.9998 60.5118C76.2495 60.6838 75.9887 60.5315 75.891 60.3948C75.756 60.206 75.6223 60.065 75.5603 59.8317C75.5239 59.6951 75.4979 59.0034 75.2469 58.974C75.1228 58.9595 74.7656 58.8389 74.7073 58.7228C74.6538 58.6164 74.4565 58.3002 74.6681 58.5452C74.7636 58.6557 74.9665 58.8205 74.9728 58.9827C74.9766 59.082 74.9074 59.1366 74.8074 59.13C74.5013 59.1097 74.3949 58.8478 74.1894 58.6708C73.9018 58.4231 73.6282 58.271 73.4757 57.9128C73.3693 57.6627 73.2137 57.2923 72.9448 57.1894C72.8344 57.1471 72.6887 57.1692 72.5923 57.1028C72.4726 57.0203 72.3857 56.8049 72.3094 56.6826C72.188 56.4879 72.0566 56.0693 71.8307 55.9722C71.6824 55.9084 71.5216 55.84 71.3694 55.7859C71.2697 55.7505 71.4963 55.9548 71.5566 56.0415C71.6674 56.2008 71.7307 56.3902 71.8307 56.557C72.0785 56.9699 72.1724 57.424 72.4748 57.8218C72.5657 57.9413 72.6894 58.1663 72.8186 58.242C72.9262 58.305 73.0357 58.4379 73.0928 58.5452C73.1546 58.6615 73.5236 58.9867 73.5236 58.7011" stroke="black" stroke-linecap="round"/>
<path d="M70.7036 47.5903C70.9069 47.6697 71.0262 47.8186 71.2106 47.9195C71.2747 47.9546 71.3847 47.9636 71.4282 48.0213C71.526 48.1511 71.5979 48.3029 71.7132 48.4177C71.8191 48.5231 71.9243 48.7245 71.9983 48.8595C72.073 48.9958 72.1834 49.1308 72.2703 49.258C72.4119 49.4654 72.5594 49.6424 72.7403 49.8125C72.8195 49.8869 72.9149 50.039 72.9383 50.1439C72.9846 50.3513 73.2517 50.448 73.3669 50.6009C73.5667 50.8659 73.8428 51.1265 73.9936 51.4109C74.21 51.819 74.5646 52.3057 74.9423 52.5804C75.2231 52.7847 75.5614 53.0392 75.7561 53.3298C75.9394 53.6034 75.9519 53.3086 75.9519 53.1067C75.9519 52.9722 75.9896 52.7731 75.9128 52.6584" stroke="black" stroke-linecap="round"/>
<path d="M75.7562 52.6194C76.2345 53.0143 76.3282 53.6267 76.6352 54.1399C76.787 54.3935 76.9224 54.6845 77.0857 54.9282C77.1703 55.0546 77.0394 54.6281 77.0182 54.4777C77.0035 54.3734 77.0095 54.2666 77.0095 54.1615C77.0095 53.9754 76.9312 53.8085 76.9312 53.6244C76.9312 53.5726 76.9332 53.5203 76.9312 53.4685C76.9244 53.2945 76.9807 53.5684 77.0095 53.6352C77.1571 53.978 77.2825 54.3309 77.4186 54.677C77.5296 54.9594 77.5442 55.2598 77.684 55.5433C77.8488 55.8773 77.8457 56.2367 77.9887 56.5721C78.084 56.7957 78.0079 56.6189 77.9669 56.4985C77.8399 56.1253 77.7713 55.7304 77.6753 55.3484C77.5486 54.8437 77.3133 54.468 77.0574 54.0143C76.9261 53.7815 76.923 53.5124 76.7941 53.2844C76.7292 53.1695 76.7593 53.0512 76.6962 52.94C76.4248 52.4621 77.3839 53.8066 77.6383 54.2936C77.9695 54.9275 78.2385 55.6161 78.5065 56.2797C78.8475 57.124 78.8772 58.0608 79.5379 58.7185C79.5907 58.771 79.6502 58.7917 79.6924 58.8571C79.7898 59.0079 79.7515 58.596 79.7512 58.5539C79.7486 58.2732 79.6331 58.0583 79.5967 57.8045C79.5771 57.6682 79.4802 57.5586 79.477 57.4233C79.4729 57.2506 79.4202 57.1555 79.3682 56.9945C79.2918 56.7578 79.2681 56.4895 79.1854 56.2581C79.1256 56.0906 79.0969 55.6284 78.9047 55.5433C78.8101 55.5015 78.85 55.5083 78.9134 55.5715C79.0217 55.6792 79.0854 55.8153 79.2115 55.9029C79.4037 56.0363 79.5091 56.5446 79.7316 56.5938C80.1088 56.6772 79.9013 56.1992 79.8599 56.0025C79.8522 55.9659 79.8387 55.7036 79.7751 55.7036C79.7437 55.7036 79.8234 55.7436 79.8469 55.7643C79.9249 55.8328 79.9942 55.9095 80.0601 55.9895C80.157 56.107 80.2508 56.2291 80.3387 56.3534C80.5525 56.6559 80.19 56.0525 80.145 55.9808C80.0529 55.8342 80.0061 55.8162 79.8491 55.8162C79.7389 55.8162 79.4938 55.8409 79.477 55.6906C79.4393 55.3526 80.1427 55.9827 80.195 56.0458C80.3764 56.2647 80.5564 56.4875 80.7303 56.7129C80.7803 56.7776 81.0349 56.9902 81.0349 57.0703C81.0349 57.2677 80.8776 56.7075 80.8086 56.5223C80.7938 56.4825 80.4938 55.6227 80.6803 55.6711C80.8431 55.7134 80.9745 55.9054 81.1002 56.009C81.2402 56.1243 81.3599 56.2626 81.4658 56.4097C81.4841 56.4352 81.6299 56.6072 81.5354 56.5873C81.3598 56.5502 81.1917 56.4921 81.0502 56.3772C81.0249 56.3566 80.7544 56.0736 80.8435 56.0588C81.0844 56.0188 81.3845 56.3292 81.5398 56.4703C81.8893 56.788 82.2918 57.0538 82.6016 57.4146C82.7436 57.58 82.8682 57.7486 83.0411 57.8825C83.1634 57.9771 83.1259 57.9242 83.076 57.811C82.9859 57.6067 82.8628 57.3849 82.8453 57.1591C82.8339 57.0111 82.6612 56.9031 82.619 56.7519C82.5904 56.6492 83.0004 56.8409 83.0107 56.8472C83.2486 56.9909 83.4658 57.1879 83.6678 57.3778C83.8764 57.5739 84.1929 57.7473 84.3336 57.9994C84.4919 58.283 84.9092 58.7145 85.2149 58.8549C85.4017 58.9407 85.5657 59.063 85.7132 59.1993C85.8507 59.3264 85.7439 59.2018 85.6697 59.13C85.3251 58.7967 84.9432 58.3704 84.6796 57.9691C84.5381 57.7537 84.7491 57.746 84.8994 57.8218C85.3673 58.058 85.8362 58.4911 86.2136 58.8571C86.5237 59.1578 86.8581 59.3744 87.2015 59.6368C87.5464 59.9002 87.9392 59.9735 88.3069 60.1826C88.3991 60.235 88.132 60.0529 88.0784 59.9617C87.997 59.8232 87.9398 59.5966 87.8108 59.4895C87.7727 59.458 87.6566 59.4573 87.6062 59.4332C87.4967 59.3808 87.3965 59.3327 87.3103 59.2469C87.1145 59.052 87.6335 59.153 87.7107 59.1776C87.9342 59.2489 88.117 59.3966 88.3286 59.4808" stroke="black" stroke-linecap="round"/>
<path d="M94.9668 55.0123C95.1678 55.4125 95.3633 55.8129 95.4973 56.2396C95.5097 56.2794 95.5842 56.4076 95.5515 56.4062C95.3551 56.3981 95.3175 56.1299 95.2969 55.9838C95.288 55.9213 95.1867 55.5685 95.3228 55.6905C95.6574 55.9902 95.9252 56.4222 96.1928 56.7817C96.3884 57.0447 96.6281 57.2794 96.8152 57.5467C96.8462 57.5911 96.9933 57.7965 96.8387 57.7392C96.5686 57.639 96.4228 57.338 96.3319 57.0844C96.2604 56.8853 96.1126 56.5969 96.1126 56.3851C96.1126 56.3058 95.9921 55.9195 96.1079 55.8759C96.3044 55.8019 96.6406 56.1556 96.7444 56.2819C96.9934 56.5847 97.1185 56.8953 97.256 57.2581C97.2796 57.3201 97.6509 57.9611 97.513 57.9691C97.2756 57.983 97.2349 57.2431 97.3315 57.2135C97.7525 57.0846 97.9191 57.901 98.1071 58.1193C98.1813 58.2054 98.2966 58.4258 98.3217 58.2883C98.3503 58.1317 98.8014 58.2422 98.8804 58.2883C98.9387 58.3223 99.2946 58.5341 99.1822 58.3564C99.024 58.1062 98.9387 57.8145 98.8286 57.542C98.7897 57.4459 98.6152 57.1869 98.6777 57.2698C98.9905 57.685 99.243 58.1658 99.6137 58.5347C99.8286 58.7486 99.634 58.6976 99.4227 58.645" stroke="black" stroke-linecap="round"/>
<path d="M77.865 49.527C78.0575 49.6679 79.0456 50.2431 78.7588 50.6102C78.5565 50.8691 76.864 50.9399 77.7914 50.9399C78.7882 50.9399 79.8417 49.7181 78.6221 49.056C78.3164 48.89 78.5254 48.8521 78.7588 48.8885C79.1374 48.9476 79.2965 49.1031 79.6158 49.2444C79.8799 49.3612 80.2353 49.7252 80.3466 49.977C80.4641 50.2429 81.1562 50.4821 81.1562 50.7986C81.1562 51.2211 79.6543 50.8466 79.3792 50.7097C78.9417 50.4919 79.3379 50.1694 79.4949 49.9038C79.5778 49.7634 80.5878 49.1294 80.6673 49.1659C81.1606 49.3925 81.6197 50.328 80.988 50.6155C80.7886 50.7062 80.4993 50.6573 80.2835 50.6573C79.8931 50.6573 79.9523 50.4357 79.947 50.0503C79.9404 49.5688 80.0232 49.179 80.3834 48.8205C80.6261 48.5789 81.3211 48.4496 81.3665 48.0198C81.4454 47.2745 82.4122 46.9965 82.8754 47.5959C83.3209 48.1723 83.6095 48.5782 84.3002 48.8728C84.5897 48.9963 84.8205 49.4978 84.6262 49.7154C84.3983 49.9706 84.3537 50.1034 83.9795 50.2753C83.6618 50.4212 83.3655 50.5631 82.9753 50.5631C82.3565 50.5631 82.5854 49.4115 82.2708 49.0089C82.1103 48.8034 82.1799 48.3299 82.4075 48.2291C83.0631 47.9391 83.0445 48.8281 83.2382 49.1816C83.8155 50.235 81.9862 50.6594 81.9343 49.3176C81.9282 49.1591 81.9379 48.5832 81.6136 48.6478C81.5621 48.6581 81.8349 49.2483 81.8397 49.3386C81.8479 49.4929 81.9343 49.6119 81.9343 49.7625C81.9343 50.0071 81.8947 50.576 82.071 50.7515C82.2491 50.9288 82.6959 50.8457 82.928 50.8457C83.1509 50.8457 83.7128 50.8946 83.7324 50.5631C83.7461 50.3313 83.6434 49.9223 83.7534 49.7154C83.9916 49.2677 84.0624 50.5664 84.111 50.6992C84.226 51.0141 84.3826 51.3128 84.5105 51.5993C84.572 51.7371 84.5841 51.8242 84.5841 51.9761C84.5841 52.0858 84.6788 51.682 84.6788 51.5993C84.6788 51.3119 84.601 50.8247 84.7944 50.5841C85.1017 50.2018 84.5817 50.1771 84.4895 50.5213C84.3956 50.8718 84.4027 51.5745 84.0163 51.7668C83.6731 51.9376 83.3251 51.7007 83.2645 51.369C83.2156 51.1013 83.3677 51.2566 83.5957 51.4109C83.887 51.6081 83.9249 51.8778 84.0689 52.1645C84.2094 52.4441 84.0993 52.7588 84.2266 53.0123C84.3594 53.2766 84.8513 53.7842 84.7787 53.2059C84.7604 53.0608 84.7132 52.2587 84.7734 52.2587C85.423 52.2587 85.221 53.0377 85.3622 53.3891C85.5369 53.8237 85.9566 54.3343 86.4085 54.5142C86.5679 54.5776 86.0725 54.3995 85.9511 54.2787C85.7664 54.0949 85.7198 53.9939 85.7198 53.7449C85.7198 53.3579 85.8405 53.0879 86.3244 53.3472C86.6061 53.4982 86.6102 53.9158 86.6714 54.1897C86.7062 54.346 87.0428 54.9274 87.0446 54.8962C87.064 54.569 87.0446 54.2351 87.0446 53.9071C87.0446 53.6682 87.2582 53.319 87.5178 53.5774C87.8118 53.87 87.6926 54.3461 87.9384 54.6607C88.1482 54.9292 88.2548 55.3485 88.4852 55.6288C88.5713 55.7336 88.5191 55.8182 88.5798 55.9324C88.6569 56.0773 88.8593 56.0873 88.9374 56.2621C89.0363 56.4837 89.2936 56.7213 89.4316 56.9685C89.6302 57.3245 89.8706 57.661 90.094 58.0047C90.2547 58.2518 90.5177 58.4891 90.6723 58.7531C90.7716 58.9224 90.3829 58.7997 90.3148 58.6641C90.1516 58.3392 90.0554 58.0429 89.9573 57.7012C89.6343 56.5758 90.5767 57.3247 90.8774 57.8634C90.9566 58.0053 90.8942 58.1265 91.0246 58.2454C91.3887 58.5777 90.9205 58.6568 90.6934 58.4129C90.4148 58.1138 90.2126 57.8536 90.0309 57.4919C89.8422 57.1162 89.4831 56.8249 89.3159 56.4505C89.2392 56.2786 88.5832 56.0651 88.3906 55.9324C87.9351 55.6185 87.6373 55.5456 87.3286 55.0846" stroke="black" stroke-linecap="round"/>
<path d="M88.7594 54.8026C88.9449 55.0902 89.1649 55.3782 89.2903 55.6993C89.2996 55.7232 89.3687 55.8249 89.3295 55.8465C89.1379 55.9525 89.0251 55.7064 88.9639 55.5823C88.8329 55.3166 88.7615 55.0125 88.7202 54.7246" stroke="black" stroke-linecap="round"/>
<path d="M82.179 47.5124C82.1341 47.6302 82.1145 47.7583 82.062 47.8633" stroke="black" stroke-linecap="round"/>
<path d="M77.8711 50.2803C78.142 50.4448 78.632 50.6256 78.7719 50.9041" stroke="black" stroke-linecap="round"/>
<path d="M4.85909 44.4871L5.53093 42.8313L16.6205 42.7964L16.6749 42.6622L8.74487 34.9102L9.41671 33.2544L20.8732 37.9028L20.3466 39.2006L11.6424 35.6689L11.597 35.7808L18.8486 42.8926L18.3402 44.1457L8.18331 44.1941L8.13791 44.306L16.8422 47.8377L16.3156 49.1355L4.85909 44.4871Z" fill="white"/>
<path d="M24.7469 33.8822C24.2362 34.5455 23.6302 35.0059 22.929 35.2635C22.2303 35.5179 21.4891 35.5668 20.7054 35.4104C19.9241 35.2507 19.1541 34.8787 18.3951 34.2944C17.6298 33.7051 17.0685 33.0519 16.7114 32.335C16.3566 31.6149 16.2129 30.8845 16.2803 30.144C16.3501 29.4003 16.6404 28.6968 17.1511 28.0335C17.6618 27.3702 18.2665 26.9114 18.9653 26.657C19.6664 26.3994 20.4093 26.3517 21.1937 26.5138C21.9805 26.6727 22.7566 27.0468 23.522 27.6361C24.2809 28.2205 24.8361 28.8715 25.1877 29.5892C25.5417 30.3037 25.6838 31.0328 25.614 31.7765C25.5466 32.517 25.2576 33.2189 24.7469 33.8822ZM23.7328 33.1014C24.1208 32.5976 24.3108 32.0836 24.303 31.5594C24.2951 31.0353 24.1409 30.533 23.8403 30.0527C23.5397 29.5723 23.1438 29.1431 22.6528 28.7649C22.1617 28.3868 21.6439 28.1126 21.0995 27.9423C20.5551 27.7719 20.0269 27.7487 19.515 27.8727C19.003 27.9966 18.5531 28.3105 18.1651 28.8143C17.7772 29.3181 17.5887 29.8334 17.5998 30.36C17.6108 30.8866 17.7682 31.3913 18.072 31.8741C18.3758 32.3569 18.7732 32.7874 19.2643 33.1655C19.7554 33.5436 20.2716 33.8166 20.8128 33.9845C21.354 34.1524 21.879 34.1731 22.3878 34.0467C22.8965 33.9203 23.3449 33.6052 23.7328 33.1014Z" fill="white"/>
<path d="M31.2817 22.1661L27.8018 17.9309L28.9026 17.0264L34.7893 24.1909L33.6885 25.0954L32.692 23.8827L32.6174 23.944C32.7484 24.4458 32.7414 24.9698 32.5964 25.516C32.4489 26.0592 32.1046 26.553 31.5635 26.9976C31.1157 27.3655 30.6372 27.5946 30.128 27.6849C29.6162 27.772 29.0973 27.6983 28.5712 27.4638C28.0426 27.2262 27.5279 26.8026 27.0271 26.1931L23.2867 21.6407L24.3875 20.7362L28.0666 25.2141C28.4958 25.7365 28.9844 26.0331 29.5322 26.1039C30.0831 26.1721 30.5871 26.0184 31.0442 25.6429C31.3178 25.418 31.5387 25.1194 31.7067 24.7469C31.8778 24.372 31.9409 23.9607 31.8961 23.5131C31.8544 23.0629 31.6496 22.6139 31.2817 22.1661Z" fill="white"/>
<path d="M35.8432 17.3891L38.3609 22.3667L37.0896 23.0098L32.9043 14.7353L34.1325 14.1141L34.7865 15.407L34.8942 15.3525C34.8756 14.8342 34.9994 14.3477 35.2654 13.8929C35.5297 13.4345 35.9743 13.0472 36.5992 12.7311C37.1594 12.4478 37.7077 12.3147 38.2442 12.332C38.7788 12.3458 39.28 12.5252 39.7478 12.8704C40.2138 13.212 40.6248 13.7348 40.9808 14.4387L43.6402 19.6964L42.3689 20.3395L39.7531 15.168C39.4243 14.5179 38.9993 14.0969 38.4783 13.9049C37.9554 13.7094 37.3995 13.7606 36.8105 14.0585C36.4047 14.2637 36.0865 14.5352 35.8558 14.8728C35.6288 15.2087 35.5091 15.5917 35.4967 16.0219C35.4843 16.4522 35.5998 16.9079 35.8432 17.3891Z" fill="white"/>
<path d="M47.6231 9.06898L47.946 10.2324L43.3156 11.5175L42.9927 10.3541L47.6231 9.06898ZM43.7482 7.83887L45.121 7.45785L47.4846 15.974C47.5922 16.3618 47.7292 16.6371 47.8954 16.7997C48.0645 16.9575 48.2474 17.0446 48.4441 17.061C48.6436 17.0724 48.8441 17.0502 49.0458 16.9942C49.1971 16.9522 49.319 16.91 49.4116 16.8676C49.5032 16.8213 49.5765 16.7843 49.6314 16.7565L50.2529 17.9122C50.1695 17.973 50.0493 18.0439 49.8922 18.1251C49.7362 18.2102 49.5302 18.2882 49.2743 18.3592C48.8865 18.4669 48.4833 18.489 48.0647 18.4255C47.65 18.361 47.2732 18.1921 46.9341 17.9186C46.599 17.6441 46.3593 17.247 46.2151 16.7273L43.7482 7.83887Z" fill="white"/>
<path d="M56.4889 17.4199C55.9029 17.4628 55.363 17.3914 54.8691 17.2057C54.375 17.0159 53.972 16.7206 53.6602 16.3197C53.348 15.9149 53.1699 15.4114 53.1257 14.8093C53.0869 14.2795 53.1598 13.8423 53.3444 13.4979C53.5287 13.1495 53.7885 12.8681 54.1239 12.6539C54.4593 12.4396 54.8343 12.2709 55.249 12.1477C55.6674 12.0201 56.0893 11.9126 56.5146 11.8249C57.0713 11.7114 57.5229 11.6239 57.8694 11.5621C58.2197 11.4961 58.4717 11.411 58.6255 11.307C58.7833 11.2026 58.8538 11.036 58.8371 10.8072L58.8335 10.759C58.79 10.165 58.5936 9.71531 58.2444 9.41C57.8991 9.10441 57.3994 8.97558 56.7451 9.02354C56.0668 9.07326 55.5458 9.26076 55.1823 9.58603C54.8187 9.9113 54.571 10.2483 54.4392 10.5969L53.0552 10.2141C53.2549 9.6345 53.5439 9.17345 53.9223 8.83095C54.3045 8.48414 54.7298 8.23101 55.1984 8.07157C55.6706 7.90782 56.1395 7.80888 56.6052 7.77475C56.9022 7.75298 57.246 7.76409 57.6366 7.8081C58.031 7.8478 58.4167 7.96278 58.7938 8.15305C59.175 8.34302 59.502 8.64794 59.7749 9.06779C60.0478 9.48765 60.2112 10.0648 60.265 10.7994L60.7117 16.8924L59.2908 16.9966L59.199 15.7442L59.1267 15.7495C59.0451 15.9573 58.9003 16.1838 58.6923 16.4291C58.4843 16.6743 58.1995 16.8909 57.838 17.0788C57.4765 17.2668 57.0268 17.3804 56.4889 17.4199ZM56.6121 16.1276C57.174 16.0864 57.6396 15.9413 58.0087 15.6923C58.3819 15.443 58.654 15.1365 58.8251 14.7729C59.0002 14.409 59.0736 14.0343 59.0454 13.649L58.95 12.3485C58.8951 12.4252 58.7675 12.5011 58.5672 12.5763C58.3707 12.6472 58.1415 12.7145 57.8799 12.778C57.6219 12.8373 57.3697 12.8921 57.1232 12.9425C56.8804 12.9885 56.6835 13.0272 56.5324 13.0584C56.1667 13.1336 55.8272 13.2372 55.514 13.3691C55.2046 13.4967 54.9593 13.6741 54.7783 13.9013C54.6009 14.1241 54.5254 14.4161 54.5519 14.7774C54.5881 15.2711 54.7981 15.631 55.1819 15.8571C55.5694 16.0789 56.0462 16.169 56.6121 16.1276Z" fill="white"/>
<path d="M63.7743 17.3149L64.79 8.09796L66.2061 8.25402L65.1905 17.4709L63.7743 17.3149ZM65.6794 6.64116C65.4033 6.61074 65.1757 6.4905 64.9964 6.28044C64.8211 6.07082 64.748 5.834 64.7771 5.56997C64.8061 5.30594 64.9291 5.09072 65.1458 4.9243C65.3665 4.75832 65.6149 4.69054 65.891 4.72096C66.167 4.75138 66.3926 4.8714 66.5679 5.08102C66.7472 5.29108 66.8224 5.52812 66.7933 5.79215C66.7642 6.05618 66.6392 6.27118 66.4185 6.43715C66.2018 6.60357 65.9554 6.67157 65.6794 6.64116Z" fill="white"/>
<path d="M72.9929 13.3824L71.3835 18.7233L70.0194 18.3122L72.6947 9.43382L74.0126 9.83094L73.5946 11.2182L73.7102 11.253C74.0541 10.8649 74.4793 10.5979 74.9856 10.452C75.4931 10.3023 76.0821 10.3284 76.7526 10.5305C77.3537 10.7116 77.8426 10.9934 78.2191 11.3759C78.5968 11.7545 78.836 12.2301 78.9367 12.8027C79.0385 13.3714 78.9757 14.0334 78.7481 14.7887L77.0481 20.4302L75.684 20.0192L77.3561 14.4702C77.5662 13.7727 77.5489 13.1748 77.3039 12.6764C77.0601 12.1742 76.6222 11.8279 75.9903 11.6375C75.5548 11.5062 75.1372 11.4834 74.7373 11.5688C74.3413 11.6555 73.9905 11.8503 73.6848 12.1533C73.3791 12.4563 73.1485 12.866 72.9929 13.3824Z" fill="white"/>
<path d="M91.2988 15.9624L92.1192 14.918L99.4113 20.6459L98.5909 21.6904L95.5335 19.2888L88.7166 27.9671L87.5393 27.0422L94.3562 18.364L91.2988 15.9624Z" fill="white"/>
<path d="M92.7921 32.022L99.8838 26.0478L100.771 27.1004L99.6994 28.0028L99.7617 28.0767C100.221 27.9103 100.703 27.9044 101.207 28.0589C101.711 28.2134 102.142 28.503 102.499 28.9278C102.567 29.0078 102.65 29.1091 102.748 29.2318C102.846 29.3544 102.918 29.4491 102.963 29.5158L101.855 30.4493C101.833 30.4046 101.776 30.3083 101.683 30.1604C101.595 30.0129 101.491 29.8669 101.369 29.7222C101.079 29.3775 100.747 29.1306 100.374 28.9816C100.007 28.8331 99.631 28.7867 99.2463 28.8423C98.8674 28.8985 98.5178 29.0614 98.1977 29.331L93.71 33.1116L92.7921 32.022Z" fill="white"/>
<path d="M97.5193 38.3929L105.477 33.6326L106.208 34.8552L98.2507 39.6156L97.5193 38.3929ZM107.175 33.4609C107.032 33.2226 106.991 32.9685 107.05 32.6987C107.111 32.4324 107.255 32.231 107.483 32.0947C107.711 31.9583 107.957 31.9262 108.221 31.9983C108.486 32.0739 108.69 32.2308 108.833 32.4692C108.975 32.7075 109.016 32.9598 108.955 33.2261C108.896 33.4959 108.753 33.699 108.525 33.8354C108.297 33.9717 108.05 34.0021 107.784 33.9266C107.521 33.8544 107.318 33.6992 107.175 33.4609Z" fill="white"/>
<path d="M97.2332 45.1118L109.215 40.7535L109.686 42.047L108.301 42.5505L108.359 42.7094C108.546 42.7527 108.789 42.8187 109.086 42.9074C109.389 42.9985 109.693 43.1748 109.998 43.4365C110.308 43.7005 110.567 44.1162 110.773 44.6835C111.04 45.4173 111.092 46.1307 110.929 46.824C110.765 47.5172 110.404 48.1432 109.845 48.702C109.286 49.2608 108.549 49.7066 107.634 50.0396C106.711 50.3752 105.854 50.5093 105.063 50.4416C104.275 50.3725 103.595 50.1274 103.022 49.7063C102.453 49.2838 102.036 48.7094 101.772 47.9832C101.569 47.4235 101.498 46.9416 101.561 46.5375C101.628 46.1321 101.747 45.7953 101.919 45.5271C102.096 45.2575 102.245 45.0447 102.368 44.8885L102.327 44.7751L97.7202 46.4507L97.2332 45.1118ZM105.337 43.6545C104.679 43.8939 104.133 44.2015 103.7 44.5774C103.271 44.9519 102.982 45.3761 102.833 45.8499C102.688 46.3224 102.714 46.8271 102.909 47.3642C103.113 47.924 103.43 48.3374 103.861 48.6045C104.297 48.8741 104.802 49.0119 105.373 49.018C105.95 49.0266 106.549 48.918 107.169 48.6924C107.782 48.4695 108.3 48.1741 108.723 47.8062C109.151 47.4406 109.44 47.0165 109.59 46.5337C109.745 46.0533 109.719 45.5295 109.513 44.9622C109.314 44.4175 109.01 44.0101 108.599 43.7399C108.192 43.4683 107.708 43.3273 107.148 43.3171C106.591 43.3054 105.987 43.4179 105.337 43.6545Z" fill="white"/>
</svg>
