<svg width="48" height="39" viewBox="0 0 48 39" fill="none" xmlns="http://www.w3.org/2000/svg">
<path d="M47.0852 5.09304C45.5826 5.74026 44.003 6.19094 42.3853 6.43396C43.1416 6.30419 44.2545 4.94165 44.6974 4.39014C45.3704 3.55824 45.8833 2.60857 46.21 1.58935C46.21 1.51366 46.2857 1.40552 46.21 1.35145C46.1719 1.33063 46.1292 1.31971 46.0858 1.31971C46.0424 1.31971 45.9996 1.33063 45.9615 1.35145C44.205 2.30352 42.3355 3.03017 40.3973 3.51422C40.3298 3.53487 40.2579 3.53673 40.1894 3.51958C40.1208 3.50243 40.0583 3.46693 40.0084 3.41689C39.8575 3.23709 39.6951 3.06731 39.5222 2.90864C38.7317 2.19974 37.8348 1.61953 36.8644 1.18924C35.5544 0.651335 34.1394 0.41838 32.7263 0.507968C31.3552 0.594639 30.0165 0.962731 28.7936 1.58935C27.5893 2.25 26.5309 3.1475 25.682 4.22793C24.789 5.33997 24.1443 6.63053 23.7912 8.01278C23.5001 9.32758 23.4671 10.6865 23.694 12.0139C23.694 12.241 23.694 12.2734 23.4995 12.241C15.7961 11.1055 9.4756 8.36964 4.31117 2.49772C4.08428 2.23818 3.96543 2.23818 3.78176 2.49772C1.53448 5.91489 2.6257 11.3218 5.43481 13.9928C5.81296 14.3497 6.20191 14.6957 6.61247 15.0202C5.32451 14.9286 4.06801 14.5793 2.91742 13.9928C2.70133 13.8523 2.58249 13.928 2.57168 14.1875C2.54106 14.5473 2.54106 14.9091 2.57168 15.2689C2.79712 16.9932 3.47608 18.6267 4.53914 20.0023C5.60219 21.3779 7.01119 22.4463 8.62206 23.0981C9.01475 23.2664 9.42393 23.3933 9.84294 23.4766C8.65061 23.7115 7.42773 23.7481 6.22352 23.5847C5.96422 23.5307 5.86698 23.6712 5.96422 23.92C7.55244 28.2455 10.999 29.5648 13.5272 30.3001C13.8729 30.3542 14.2187 30.3542 14.6076 30.4407C14.6076 30.4407 14.6076 30.4407 14.5428 30.5056C13.7973 31.8681 10.7829 32.7873 9.39997 33.2631C6.87574 34.1706 4.18445 34.5175 1.51287 34.2796C1.0915 34.2147 0.994264 34.2255 0.886221 34.2796C0.778179 34.3337 0.886221 34.4526 1.00507 34.5608C1.54528 34.9176 2.08549 35.2312 2.64731 35.534C4.31986 36.4471 6.08808 37.1724 7.91978 37.6968C17.4059 40.3137 28.0805 38.3889 35.2005 31.3058C40.7971 25.7475 42.7635 18.0805 42.7635 10.4026C42.7635 10.1107 43.12 9.93764 43.3253 9.78625C44.7412 8.68204 45.9895 7.378 47.0311 5.91489C47.2115 5.6968 47.304 5.41911 47.2904 5.1363C47.2904 4.97409 47.2905 5.00653 47.0852 5.09304Z" fill="white"/>
</svg>
