<svg width="52" height="37" viewBox="0 0 52 37" fill="none" xmlns="http://www.w3.org/2000/svg">
<path d="M50.81 5.98357C50.2158 3.74993 48.4582 1.98784 46.222 1.38393C42.1787 0.300202 25.9559 0.300201 25.9559 0.300201C25.9559 0.300201 9.7414 0.300202 5.68983 1.38393C3.46188 1.97957 1.70428 3.74166 1.1019 5.98357C0.0209351 10.0372 0.0209351 18.5002 0.0209351 18.5002C0.0209351 18.5002 0.0209351 26.9632 1.1019 31.0168C1.69602 33.2505 3.45363 35.0126 5.68983 35.6165C9.7414 36.7002 25.9559 36.7002 25.9559 36.7002C25.9559 36.7002 42.1787 36.7002 46.222 35.6165C48.45 35.0208 50.2076 33.2587 50.81 31.0168C51.8909 26.9632 51.8909 18.5002 51.8909 18.5002C51.8909 18.5002 51.8909 10.0372 50.81 5.98357Z" fill="white"/>
<path d="M20.7739 26.3014L34.2489 18.5002L20.7739 10.699V26.3014Z" fill="black"/>
</svg>
